<svg xmlns="http://www.w3.org/2000/svg" xmlns:xlink="http://www.w3.org/1999/xlink" width="75" height="75" viewBox="0 0 75 75"><defs><path id="cin7a" d="M1760 1220.99a36 36 0 1 1 0-72 36 36 0 0 1 0 72zm0-69.6c-18.89 0-33.6 14.7-33.6 33.6 0 18.88 14.71 33.6 33.6 33.6s33.6-14.72 33.6-33.6c0-18.9-14.71-33.6-33.6-33.6zm.98 48.79c-.02.01-.02.03-.03.05-.24.23-.54.35-.85.35-.3 0-.6-.12-.83-.35l-10.93-11.04a1.2 1.2 0 0 1 0-1.69 1.18 1.18 0 0 1 1.68 0l8.78 8.87v-25.78a1.2 1.2 0 0 1 2.4 0v26.03l8.82-8.9c.45-.46 1.2-.46 1.65 0 .46.46.46 1.2 0 1.67z"/></defs><g><g transform="translate(-1722 -1147)"><use fill="#fff" xlink:href="#cin7a"/><use fill="#4d565d" xlink:href="#cin7a"/></g></g></svg>